<?xml version="1.0" encoding="UTF-8"?>
<svg version="1.1" xmlns="http://www.w3.org/2000/svg" width="1118" height="1128">
<path d="M0 0 C2.71943021 2.33962152 3.65546853 4.31935018 4.625 7.75 C4.86476563 8.56984375 5.10453125 9.3896875 5.3515625 10.234375 C7.07967766 17.60489024 7.16053425 24.74850377 7.16796875 32.29296875 C7.17129715 33.47538651 7.17462555 34.65780426 7.17805481 35.87605286 C7.18310569 38.37317518 7.1854637 40.87030422 7.18530273 43.36743164 C7.18748256 47.15717918 7.20563996 50.94663227 7.22460938 54.73632812 C7.22754513 57.17187401 7.22952871 59.60742127 7.23046875 62.04296875 C7.23765427 63.16213181 7.24483978 64.28129486 7.25224304 65.43437195 C7.16991139 94.27241382 -9.24300333 116.77243197 -26 139 C-26.69270996 139.92232422 -26.69270996 139.92232422 -27.39941406 140.86328125 C-35.21781638 151.24179323 -43.46900156 161.25502505 -51.8984375 171.13989258 C-54.15873098 173.79613536 -56.3894637 176.46781518 -58.55859375 179.19921875 C-59.34363281 180.18535156 -60.12867188 181.17148437 -60.9375 182.1875 C-61.62714844 183.06792969 -62.31679688 183.94835937 -63.02734375 184.85546875 C-64.9439008 186.93901295 -66.39698817 187.95763061 -69 189 C-75.70047523 181.39196761 -75.70047523 181.39196761 -78.8125 177.5625 C-80.73971393 174.96768028 -80.73971393 174.96768028 -83 174 C-96.42266997 173.08934054 -96.42266997 173.08934054 -109 177 C-112.65470075 180.70815158 -113.85397233 184.11301078 -115.0625 189.125 C-115.22967529 189.78516113 -115.39685059 190.44532227 -115.5690918 191.12548828 C-116.32287034 194.10951133 -117.02184921 197.10111609 -117.671875 200.109375 C-119.32105193 207.2289925 -122.19103648 211.5667149 -127 217 C-127.97314929 218.12866303 -128.94436318 219.25899652 -129.9140625 220.390625 C-131.48778291 222.22663215 -133.06209623 224.06203193 -134.64160156 225.89306641 C-142.99908186 234.90741225 -142.99908186 234.90741225 -146.26538086 246.29663086 C-146.31576004 247.62804611 -146.31576004 247.62804611 -146.36715698 248.98635864 C-146.39939362 249.96925873 -146.43163025 250.95215881 -146.46484375 251.96484375 C-146.52117477 253.54747513 -146.52117477 253.54747513 -146.5786438 255.16207886 C-146.7038614 258.75371838 -146.82112023 262.34556378 -146.9375 265.9375 C-146.97946503 267.18864594 -147.02143005 268.43979187 -147.06466675 269.72885132 C-148.07438677 300.02399648 -148.69003243 330.32919444 -149.30249023 360.63452148 C-149.63759474 377.15788382 -149.97318556 393.68054594 -150.49609375 410.19921875 C-150.5317897 411.38522171 -150.56748566 412.57122467 -150.60426331 413.79316711 C-151.19295726 431.19295726 -151.19295726 431.19295726 -153 433 C-155.18809735 433.2190379 -157.38278699 433.37256913 -159.578125 433.5 C-160.25284851 433.54028824 -160.92757202 433.58057648 -161.6227417 433.62208557 C-163.83158621 433.75265183 -166.04075589 433.87639574 -168.25 434 C-169.76303907 434.08814789 -171.27605992 434.17660899 -172.7890625 434.26538086 C-181.99419148 434.79999784 -191.20142403 435.29308615 -200.41503906 435.65820312 C-201.8479885 435.7185508 -203.28059435 435.78856175 -204.71237183 435.8722229 C-206.19633851 435.95511092 -207.68179835 436.01550174 -209.16769409 436.04928589 C-215.30415178 436.38880945 -218.19464173 438.06361353 -222.3203125 442.50390625 C-222.86807343 443.06061508 -223.41583435 443.61732391 -223.98019409 444.19090271 C-225.71487153 445.96343041 -227.41947422 447.76195414 -229.125 449.5625 C-230.2755143 450.74462184 -231.42784566 451.92497805 -232.58203125 453.10351562 C-237.66575102 458.32083701 -242.60854403 463.62301969 -247.35400391 469.15112305 C-250.60796655 472.80615999 -254.13537602 476.19703016 -257.625 479.625 C-259.09880071 481.07303496 -260.57021216 482.52350625 -262.0390625 483.9765625 C-263.00126709 484.92136475 -263.00126709 484.92136475 -263.98291016 485.88525391 C-264.6485498 486.58312012 -265.31418945 487.28098633 -266 488 C-266.85300186 488.71663818 -267.70600372 489.43327637 -268.58485413 490.17163086 C-272.87113609 495.41245583 -271.69888726 502.95083968 -271.65942383 509.36865234 C-271.66788089 510.94588487 -271.67852677 512.52310694 -271.69119263 514.10031128 C-271.71931693 518.37269292 -271.71687135 522.64457212 -271.70889878 526.91701841 C-271.70577211 531.38539745 -271.73081278 535.85361693 -271.75285339 540.32192993 C-271.79029607 548.7790918 -271.80244152 557.23609287 -271.8054778 565.69332945 C-271.81016838 575.32335073 -271.84309171 584.9532109 -271.87837565 594.58316112 C-271.950311 614.38875576 -271.98682707 634.19428483 -272 654 C-275.61788201 656.03378113 -279.24536341 658.0497833 -282.875 660.0625 C-283.90753906 660.64322266 -284.94007813 661.22394531 -286.00390625 661.82226562 C-286.99003906 662.36689453 -287.97617187 662.91152344 -288.9921875 663.47265625 C-289.90339355 663.98062744 -290.81459961 664.48859863 -291.75341797 665.01196289 C-292.49479004 665.33801514 -293.23616211 665.66406738 -294 666 C-294.66 665.67 -295.32 665.34 -296 665 C-297.67157054 655.15636396 -297.28047309 644.75025353 -297.49609375 634.76953125 C-297.51587217 633.89956827 -297.5356506 633.02960529 -297.55602837 632.1332798 C-298.74857018 579.37951221 -299.21822071 526.60485777 -299.81614864 473.84176517 C-299.9335878 463.48498695 -300.06226371 453.12846271 -300.203125 442.77197266 C-300.3303445 433.37584106 -300.43522888 423.979916 -300.49942684 414.58312893 C-300.52995908 410.13753553 -300.57110468 405.69279066 -300.64260864 401.24765015 C-300.70676714 397.23221258 -300.73866543 393.21793807 -300.74308777 389.20200157 C-300.75013252 387.78845701 -300.76882562 386.37490704 -300.8009491 384.96170998 C-301.05259613 373.43863992 -301.05259613 373.43863992 -296.61035156 368.34667969 C-295.41230786 367.22531519 -294.20921555 366.10930825 -293 365 C-289.75713921 360.67412073 -287.06398042 355.95234046 -284.34228516 351.28759766 C-283.43639596 349.74373047 -282.51370134 348.2096188 -281.57568359 346.68505859 C-273.71594831 333.78997203 -270.05283101 321.18075697 -273 306 C-274.68840384 301.44823789 -276.95641174 296.82314902 -280.9140625 293.83984375 C-289.39160177 290.42660228 -301.61764777 292.77685451 -309.875 296.1875 C-313.34773034 299.1495347 -315.63015051 302.69443482 -316.35400391 307.20678711 C-316.4648481 309.60815831 -316.44792371 311.97235551 -316.375 314.375 C-316.37371094 315.17421875 -316.37242187 315.9734375 -316.37109375 316.796875 C-316.29975117 321.6957324 -315.6746279 326.20296 -314.48535156 330.95458984 C-312.809419 338.01744852 -313.71074108 342.08928814 -317.5 348.375 C-321.50302671 354.5225053 -321.50302671 354.5225053 -323.97494507 356.89753819 C-332.87045635 366.43293474 -330.93485946 378.2482015 -330.6328125 390.47436523 C-330.60093373 392.97282255 -330.57265318 395.47132797 -330.54768372 397.96986389 C-330.48596224 403.34559925 -330.39945189 408.72005215 -330.29025269 414.0949688 C-330.13136279 421.92243392 -330.01901619 429.75005255 -329.91742694 437.57844616 C-329.75042693 450.35683439 -329.54767415 463.13439199 -329.32177734 475.91186523 C-329.10482023 488.18866252 -328.90210953 500.46553573 -328.72119141 512.74291992 C-328.71012863 513.49322184 -328.69906586 514.24352376 -328.68766785 515.0165621 C-328.61010164 520.28902624 -328.53348813 525.56150405 -328.45703125 530.83398438 C-328.37066566 536.78126075 -328.28394884 542.72853189 -328.19677734 548.67579651 C-328.18615705 549.40192741 -328.17553677 550.12805831 -328.16459465 550.87619317 C-328.02018381 560.72711068 -327.86377429 570.57776232 -327.69671154 580.42832068 C-327.13511919 613.62230786 -326.86966354 646.80124012 -327 680 C-328.60541659 680.8102379 -330.21169714 681.61876409 -331.81834412 682.42655945 C-332.71274924 682.87698955 -333.60715437 683.32741964 -334.52866268 683.79149914 C-338.89738894 685.92783618 -343.43217632 687.35679896 -348.0625 688.8125 C-349.65251831 689.31463013 -349.65251831 689.31463013 -351.2746582 689.8269043 C-360.33982192 692.6172354 -369.48326171 695.03365876 -378.6875 697.3125 C-379.33945343 697.47730865 -379.99140686 697.64211731 -380.66311646 697.81192017 C-400.42890639 702.77369001 -420.44804434 704.46630229 -440.75439453 705.50805664 C-444.28864453 705.68948378 -447.82201946 705.88372132 -451.35546875 706.08007812 C-453.63798147 706.20385302 -455.92053239 706.32692591 -458.203125 706.44921875 C-459.76114838 706.53353401 -459.76114838 706.53353401 -461.35064697 706.61955261 C-474.98420714 707.31380417 -474.98420714 707.31380417 -480 707 C-481.85652047 705.14347953 -481.12621835 702.06631479 -481.12698364 699.58688354 C-481.12854363 698.90901484 -481.13010362 698.23114613 -481.13171089 697.53273594 C-481.13572319 695.24429582 -481.13253028 692.95592117 -481.12939453 690.66748047 C-481.13074855 689.03339092 -481.13252848 687.39930167 -481.13470459 685.76521301 C-481.13928105 681.31245733 -481.13748793 676.8597247 -481.1343255 672.40696859 C-481.13180043 667.75105825 -481.1341401 663.09514992 -481.13571167 658.4392395 C-481.13753402 650.61248418 -481.13512649 642.78573827 -481.13037109 634.95898438 C-481.12493973 625.91537431 -481.12668266 616.87178684 -481.1321975 607.82817733 C-481.13674038 600.06760047 -481.13737307 592.3070304 -481.13475883 584.54645264 C-481.13320106 579.91005275 -481.13298838 575.27366346 -481.13629532 570.63726425 C-481.13919067 566.27233262 -481.13716774 561.90742996 -481.13140106 557.54250145 C-481.1300819 555.94255941 -481.13045322 554.34261493 -481.13266373 552.74267387 C-481.13540875 550.55342276 -481.13195317 548.36426362 -481.12698364 546.17501831 C-481.12660662 544.95125425 -481.12622959 543.7274902 -481.12584114 542.46664238 C-480.77399229 532.77399229 -480.77399229 532.77399229 -478 530 C-475.54150391 529.57348633 -475.54150391 529.57348633 -472.4765625 529.33203125 C-471.373125 529.24373047 -470.2696875 529.15542969 -469.1328125 529.06445312 C-467.97523438 528.98130859 -466.81765625 528.89816406 -465.625 528.8125 C-464.47515625 528.71775391 -463.3253125 528.62300781 -462.140625 528.52539062 C-450.6190206 527.64582759 -450.6190206 527.64582759 -446.82104492 530.82250977 C-446.04865479 531.60424561 -445.27626465 532.38598145 -444.48046875 533.19140625 C-443.62259766 534.05443359 -442.76472656 534.91746094 -441.88085938 535.80664062 C-440.99205078 536.71607422 -440.10324219 537.62550781 -439.1875 538.5625 C-438.31029297 539.44486328 -437.43308594 540.32722656 -436.52929688 541.23632812 C-432.03183917 545.78760731 -427.66214634 550.40168721 -423.51489258 555.27514648 C-421.91405088 557.09786149 -420.23157343 558.80166263 -418.5 560.5 C-414.78705414 564.15467093 -411.36967614 568.02912613 -408 572 C-407.14792969 572.86496094 -406.29585937 573.72992187 -405.41796875 574.62109375 C-402.12497327 578.58200813 -401.67949897 583.02897243 -400.9375 588 C-399.80629933 595.36092304 -398.74741038 600.70682118 -392.9375 605.8125 C-386.94801567 609.48347426 -378.7763132 608.48640203 -372 608 C-366.96974703 606.5909451 -363.52832198 603.79973137 -360 600 C-359.34 600 -358.68 600 -358 600 C-358.33 590.1 -358.66 580.2 -359 570 C-362.361875 568.618125 -365.72375 567.23625 -369.1875 565.8125 C-383.23603017 559.50536796 -392.9190239 549.38077055 -403 538 C-403.50236176 537.44179565 -404.00472351 536.88359131 -404.52230835 536.30847168 C-407.92188211 532.49100808 -411.04287874 528.58756051 -414.07666016 524.47216797 C-421.59012129 514.99883787 -428.65698962 507.59253015 -441.10058594 506.12207031 C-450.60391442 505.28048524 -460.15100135 505.62601027 -469.66845703 506.02581787 C-474.22698488 506.19286658 -478.78661092 506.23095639 -483.34765625 506.28125 C-492.23724462 506.3976179 -501.11664898 506.65239857 -510 507 C-510.42565116 520.42120387 -510.84927737 533.84247099 -511.27127838 547.26379013 C-511.34023424 549.45682744 -511.40921907 551.64986385 -511.47823334 553.84289932 C-512.2186209 577.37617781 -512.95582561 600.90943741 -513.609375 624.4453125 C-513.63207584 625.26150244 -513.65477669 626.07769238 -513.67816544 626.91861534 C-513.88882338 634.50465708 -514.09638159 642.09077271 -514.29735756 649.67707729 C-514.61881974 661.78380643 -514.94350557 673.88932607 -515.4921875 685.98828125 C-515.52813019 686.81361862 -515.56407288 687.63895599 -515.60110474 688.48930359 C-515.82408992 693.05058537 -516.28083284 697.48964453 -517 702 C-520.56438417 702.88715139 -523.12488091 703.01712914 -526.703125 702.21484375 C-527.59346436 702.01681152 -528.48380371 701.8187793 -529.40112305 701.61474609 C-530.34125244 701.39125488 -531.28138184 701.16776367 -532.25 700.9375 C-533.2191333 700.71143066 -534.1882666 700.48536133 -535.18676758 700.25244141 C-541.45439502 698.74047085 -547.59807786 696.99396339 -553.6875 694.875 C-554.38713867 694.63386475 -555.08677734 694.39272949 -555.80761719 694.14428711 C-559.13426258 692.92775899 -561.86731799 691.90888783 -564 689 C-565.72343469 683.82969593 -565.63836547 678.35202949 -565.96484375 672.9375 C-566.00765913 672.23851593 -566.05047451 671.53953186 -566.09458733 670.81936646 C-567.52879764 646.86820115 -567.89775622 622.86221436 -568.46972656 598.87890625 C-568.71530038 588.61133572 -568.96920185 578.3439745 -569.22645378 568.07669067 C-569.31392002 564.53808494 -569.39750398 560.99940389 -569.48060608 557.46069336 C-569.62832494 551.30624341 -569.80459422 545.15310654 -570 539 C-570.02536205 538.12057236 -570.05072411 537.24114471 -570.07685471 536.33506775 C-570.15064559 533.95481348 -570.24485396 531.57643107 -570.34741211 529.19726562 C-570.39780136 527.90228149 -570.44819061 526.60729736 -570.50010681 525.27307129 C-571.31338222 519.94811697 -574.01693645 517.35499565 -578 514 C-579.16058317 512.77421553 -580.30653381 511.53441254 -581.4375 510.28125 C-582.62360684 509.01952223 -583.81115316 507.75914638 -585 506.5 C-586.31258254 505.10554644 -587.62507996 503.71101275 -588.9375 502.31640625 C-589.60523438 501.60758301 -590.27296875 500.89875977 -590.9609375 500.16845703 C-592.99937693 498.0006626 -595.03190755 495.82748851 -597.0625 493.65234375 C-597.7225 492.9459375 -598.3825 492.23953125 -599.0625 491.51171875 C-600.31331738 490.17263804 -601.56337309 488.83284526 -602.8125 487.4921875 C-606.2728362 483.79240839 -609.79559732 480.17382322 -613.40966797 476.6237793 C-615.0634768 474.93518818 -616.59889938 473.17924312 -618.125 471.375 C-621.40512507 467.56055592 -624.92524149 464.03436006 -628.5 460.5 C-632.59131049 456.45476932 -636.51600425 452.36495992 -640.24609375 447.98046875 C-647.4469468 438.90747424 -647.4469468 438.90747424 -657.04296875 433.8046875 C-657.75066406 433.82789063 -658.45835937 433.85109375 -659.1875 433.875 C-661.0746875 433.936875 -661.0746875 433.936875 -663 434 C-663.50704109 437.37398089 -664.00436536 440.74932621 -664.5 444.125 C-664.64308594 445.07632812 -664.78617188 446.02765625 -664.93359375 447.0078125 C-665.32163745 449.66868361 -665.66615074 452.33187885 -666 455 C-666.23396484 456.60875 -666.23396484 456.60875 -666.47265625 458.25 C-665.72671796 462.59000459 -662.99425844 464.85054974 -659.9375 467.875 C-658.64289304 469.20670457 -657.34863351 470.53874696 -656.0546875 471.87109375 C-655.38276367 472.55284668 -654.71083984 473.23459961 -654.01855469 473.93701172 C-650.80920032 477.21701225 -647.69019287 480.57988435 -644.5625 483.9375 C-643.30391656 485.28044589 -642.04479908 486.62289148 -640.78515625 487.96484375 C-636.39956338 492.63986993 -632.01542869 497.31626244 -627.63183594 501.99316406 C-621.93097662 508.07602579 -621.93097662 508.07602579 -616.21899414 514.1484375 C-614.95108895 515.50450667 -613.69363712 516.87042787 -612.44702148 518.24609375 C-609.58537304 521.38489666 -606.8105545 524.24009159 -603.390625 526.76953125 C-598.77499445 530.38162658 -595.43951747 533.9344471 -594.58013916 539.92845154 C-594.46210629 543.57522147 -594.51600841 547.18488563 -594.625 550.83203125 C-594.6485608 552.23607494 -594.66990484 553.64015729 -594.68922424 555.04426575 C-594.74895236 558.88423515 -594.84168129 562.72279007 -594.94044876 566.5619278 C-595.04215031 570.72566506 -595.11423722 574.88994459 -595.19116211 579.05419922 C-595.37919264 588.85341618 -595.61993134 598.65102206 -595.86883545 608.44885254 C-595.96094003 612.12239252 -596.04826835 615.79604015 -596.13568687 619.46969414 C-596.89820285 651.4118357 -596.89820285 651.4118357 -597.50390625 664.67578125 C-597.53910873 665.47098679 -597.57431122 666.26619232 -597.61058044 667.085495 C-597.81585836 671.12092456 -598.24903835 675.02940266 -599 679 C-603.94439316 678.44640997 -607.88505866 676.83401766 -612.25 674.5625 C-613.29099854 674.02906982 -613.29099854 674.02906982 -614.35302734 673.48486328 C-616.57588073 672.33644696 -618.78912214 671.17129075 -621 670 C-621.70737305 669.62697754 -622.41474609 669.25395508 -623.14355469 668.86962891 C-647.15183261 656.11695125 -676.6001567 640.3998433 -696 621 C-696.0985302 619.25655662 -696.12632093 617.5090884 -696.12698364 615.76286316 C-696.13121338 614.05606636 -696.13121338 614.05606636 -696.13552856 612.31478882 C-696.13249222 610.42296371 -696.13249222 610.42296371 -696.12939453 608.49291992 C-696.13074923 607.15844169 -696.13252955 605.82396384 -696.13470459 604.48948669 C-696.13929318 600.83740136 -696.13747771 597.18534407 -696.1343255 593.5332582 C-696.13178272 589.66314735 -696.1341472 585.79303881 -696.13571167 581.92292786 C-696.13753885 575.36780373 -696.1351243 568.81269079 -696.13037109 562.25756836 C-696.12562274 555.63549048 -696.12546621 549.01343519 -696.13037109 542.39135742 C-696.1534266 510.40001721 -696.14842555 478.41268217 -695.5546875 446.42578125 C-695.52556463 444.76352036 -695.52556463 444.76352036 -695.49585342 443.06767845 C-695.4405992 440.02062558 -695.37807421 436.97383747 -695.31201172 433.92700195 C-695.29569073 433.03886873 -695.27936974 432.15073551 -695.26255417 431.23568916 C-695.11616227 425.23232454 -695.11616227 425.23232454 -694 423 C-690.52426055 422.03667569 -687.21438244 421.87448308 -683.62251282 421.87301636 C-682.5562265 421.87019653 -681.48994019 421.86737671 -680.39134216 421.86447144 C-678.65135704 421.86750778 -678.65135704 421.86750778 -676.8762207 421.87060547 C-675.0311795 421.86797699 -675.0311795 421.86797699 -673.14886475 421.86529541 C-669.77820339 421.86164954 -666.40760349 421.8625042 -663.03694558 421.8656745 C-659.49127895 421.86821556 -655.94561486 421.86585502 -652.39994812 421.86428833 C-646.43223606 421.86246864 -640.46453636 421.86486447 -634.49682617 421.86962891 C-627.64256451 421.87503872 -620.78833274 421.87333212 -613.93407184 421.8678025 C-608.02120948 421.86322664 -602.10835601 421.86264343 -596.19549245 421.86524117 C-592.67718627 421.86678376 -589.15889399 421.86705481 -585.64058876 421.86370468 C-577.09298962 421.85691545 -568.54693296 421.88754049 -560 422 C-559.03264797 422.01187599 -558.06529594 422.02375198 -557.06863022 422.03598785 C-554.54045629 422.07885768 -552.01588544 422.15248661 -549.48901367 422.24267578 C-548.44268878 422.25991101 -548.44268878 422.25991101 -547.37522602 422.27749443 C-540.14248484 422.62635911 -536.62285485 426.9755293 -532 432 C-522.17937586 439.23447011 -511.5858406 439.3969723 -499.67285156 438.49755859 C-495.73938529 437.76533314 -494.027738 436.25252023 -491.6875 433.0625 C-490.09692897 430.06102268 -490.09692897 430.06102268 -489 427 C-488.63519531 426.22527344 -488.27039063 425.45054687 -487.89453125 424.65234375 C-485.01922733 417.73403607 -484.82458601 409.70134522 -487.25 402.625 C-489.65421054 397.18213447 -492.29665538 393.92167793 -497.921875 391.6262207 C-501.78186746 390.46305333 -505.61972817 390.47286505 -509.625 390.5 C-510.50800781 390.49991943 -511.39101563 390.49983887 -512.30078125 390.49975586 C-518.95842843 390.6461512 -524.00463398 392.22196957 -530.08984375 394.9453125 C-535.21025423 396.80103173 -539.72472649 395.7714635 -545 395 C-563.054264 392.45509094 -581.1497553 392.73633009 -599.33653355 392.79721212 C-603.76737909 392.80987067 -608.19822852 392.81090172 -612.62908936 392.81326294 C-620.98661718 392.81943391 -629.34409154 392.83578419 -637.70159602 392.85596192 C-647.23028694 392.8784589 -656.75898065 392.88934874 -666.28769159 392.89935279 C-685.85849117 392.92015527 -705.42924126 392.95524422 -725 393 C-726.43334155 438.93577796 -726.43334155 438.93577796 -727.59765625 484.87890625 C-727.61799297 485.80023724 -727.6383297 486.72156822 -727.65928268 487.67081833 C-727.79733627 493.96796958 -727.93032521 500.2652231 -728.0625 506.5625 C-728.92822529 547.61600927 -728.92822529 547.61600927 -729.49609375 563.15234375 C-729.54963768 564.68659752 -729.54963768 564.68659752 -729.60426331 566.25184631 C-729.80181118 571.23735969 -730.18266396 576.07681747 -731 581 C-734.01672537 579.6797542 -735.77634193 578.39588562 -737.77734375 575.7890625 C-738.28426758 575.13156006 -738.79119141 574.47405762 -739.31347656 573.79663086 C-739.8494043 573.07999268 -740.38533203 572.36335449 -740.9375 571.625 C-741.50307617 570.87549072 -742.06865234 570.12598145 -742.65136719 569.35375977 C-752.43262785 556.21340115 -761.1765568 542.35893208 -768.94824219 527.94335938 C-770.00533433 525.99014362 -771.08343848 524.04965238 -772.1640625 522.109375 C-788.59277263 492.28606946 -818.36783699 433.03576953 -814 398 C-812.21413302 395.64758662 -810.55084084 393.7794699 -808.44799805 391.75097656 C-807.85784912 391.15834518 -807.2677002 390.56571381 -806.65966797 389.9551239 C-804.70772517 388.00226376 -802.73527905 386.0716161 -800.76171875 384.140625 C-799.40003582 382.78759811 -798.03960394 381.43331109 -796.68037415 380.07781982 C-793.0993793 376.51405466 -789.50029711 372.96909518 -785.89758301 369.42730713 C-782.95836168 366.53167492 -780.03218602 363.62305681 -777.10663128 360.71362686 C-773.6209055 357.24750605 -770.12973795 353.78689425 -766.63671875 350.328125 C-765.63554299 349.33658794 -765.63554299 349.33658794 -764.61414146 348.32501984 C-762.72569679 346.45755161 -760.83366301 344.59380892 -758.94018555 342.73144531 C-758.38057632 342.17766708 -757.8209671 341.62388885 -757.24440002 341.05332947 C-751.16328862 335.09028928 -751.16328862 335.09028928 -747.31030464 334.79123783 C-746.25328283 334.81098887 -745.19626102 334.83073992 -744.10720825 334.85108948 C-742.94066837 334.86931322 -741.77412849 334.88753696 -740.57223892 334.90631294 C-739.39340008 334.93722967 -738.21456123 334.9681464 -737 335 C-735.96647274 335.02465773 -734.93294548 335.04931545 -733.86809921 335.07472038 C-730.67297862 335.16253818 -727.47902161 335.27034926 -724.28466797 335.38256836 C-721.77614273 335.46590885 -719.26760746 335.54894743 -716.75906372 335.63172913 C-715.42480559 335.67626927 -714.09054783 335.72082068 -712.75629044 335.76538277 C-686.17700504 336.64860768 -659.59679846 337.30931193 -633.0078125 337.81640625 C-632.19115081 337.83206493 -631.37448912 337.84772361 -630.5330801 337.86385679 C-618.06383366 338.10292173 -605.59443841 338.33370021 -593.125 338.5625 C-582.08839434 338.76503416 -571.05181815 338.96877006 -560.01537788 339.18015331 C-555.29425931 339.27035865 -550.57309339 339.35685124 -545.85184979 339.44024479 C-542.94176167 339.49243535 -540.03174292 339.54792182 -537.12173271 339.60427475 C-535.15761476 339.64133175 -533.19342379 339.67445469 -531.22923279 339.70741272 C-511.9920269 340.090419 -511.9920269 340.090419 -505.515625 342.5390625 C-500.27672885 344.45408197 -495.27866779 344.44242278 -489.75 344.375 C-488.29980469 344.39240234 -488.29980469 344.39240234 -486.8203125 344.41015625 C-481.76097883 344.38924991 -478.06390923 344.36100644 -474 341 C-467.46612011 333.90607327 -466.73367626 326.12477232 -466.84765625 316.81640625 C-467.19958437 310.31024794 -468.02532668 304.58193596 -473 300 C-480.28485601 295.65852016 -486.53666961 294.36494491 -495 295 C-500.88359755 296.88275122 -507.85853312 302.34430499 -511.02104187 307.7430191 C-512.48988592 310.03706451 -513.75555209 311.432628 -516 313 C-520.92701793 313.94561741 -525.81410113 313.66009345 -530.80078125 313.44335938 C-532.31939592 313.40353828 -533.83809597 313.36686726 -535.3568573 313.33309937 C-539.48169585 313.23243013 -543.60394498 313.08763912 -547.72714233 312.93497276 C-552.07258429 312.7816465 -556.41908407 312.6690131 -560.765625 312.55187988 C-569.02869076 312.32302205 -577.2901646 312.05760927 -585.55169106 311.77914476 C-594.8335379 311.46804012 -604.11641338 311.19742293 -613.39961815 310.93046093 C-631.75405624 310.40138416 -650.10674793 309.82609916 -668.45862293 309.21486712 C-672.78743597 309.0712442 -677.11637856 308.93326864 -681.44554901 308.80085897 C-683.50918067 308.73760788 -685.57277089 308.67314462 -687.63635254 308.608284 C-690.12448207 308.53037642 -692.61267791 308.45454086 -695.10095215 308.38140106 C-702.75572604 308.13755747 -710.36903414 307.64921866 -718 307 C-716.23088451 303.99733678 -714.5958872 301.34569607 -712.12426758 298.88134766 C-711.5697139 298.32371735 -711.01516022 297.76608704 -710.44380188 297.19155884 C-709.85004257 296.60498505 -709.25628326 296.01841125 -708.64453125 295.4140625 C-708.02406418 294.79405365 -707.40359711 294.1740448 -706.764328 293.5352478 C-705.45291828 292.22685102 -704.13908711 290.92087733 -702.82299805 289.6171875 C-700.83135153 287.64367984 -698.84770672 285.66240633 -696.86523438 283.6796875 C-691.3317108 278.16212073 -685.81165423 272.7014576 -679.85424805 267.63818359 C-675.87970978 264.12677454 -672.21846283 260.27814923 -668.5 256.5 C-663.42028497 251.33874862 -658.31814336 246.31740671 -652.82226562 241.59960938 C-650.08201486 239.19418024 -647.54390026 236.60960507 -645 234 C-641.10882141 230.05509103 -637.14810009 226.2999361 -632.92578125 222.70703125 C-629.88338305 220.01021987 -627.07674191 217.08465604 -624.22265625 214.19140625 C-621.5729856 211.57898932 -618.78827197 209.16697379 -615.96484375 206.74609375 C-613.18575486 204.2764064 -610.61139504 201.62096678 -608.00390625 198.97265625 C-605.41753849 196.42662171 -602.6846472 194.07978443 -599.93359375 191.71484375 C-597.44118784 189.50440699 -595.13002433 187.14158441 -592.796875 184.765625 C-590.23420129 182.24751953 -587.52543569 179.91377295 -584.796875 177.578125 C-582.97986472 176.04200844 -582.97986472 176.04200844 -581.453125 174.296875 C-580 173 -580 173 -577 173 C-576.96463638 173.8525386 -576.92927277 174.70507721 -576.89283752 175.58345032 C-576.55736698 183.65930315 -576.21928863 191.73504184 -575.87835789 199.81066608 C-575.70321675 203.96136632 -575.52904697 208.11210235 -575.35717773 212.26293945 C-575.19095136 216.2765979 -575.02206811 220.29013691 -574.85142326 224.30360985 C-574.78711302 225.82678535 -574.72372376 227.35000006 -574.66131783 228.87325478 C-574.57303496 231.02409736 -574.48133009 233.17477091 -574.38891602 235.32543945 C-574.33784195 236.54455521 -574.28676788 237.76367096 -574.23414612 239.01972961 C-574.04270722 242.27401617 -573.78531896 245.50353745 -573.48536587 248.7487669 C-573.39466617 249.73378868 -573.30396647 250.71881046 -573.2105183 251.73368138 C-573.10631174 252.8555091 -573.10631174 252.8555091 -573 254 C-572.43671733 253.99831877 -571.87343467 253.99663753 -571.29308283 253.99490535 C-537.8905734 253.89647947 -504.48844573 253.85023478 -471.08580486 253.87152898 C-467.07299116 253.87404212 -463.06017735 253.87612034 -459.04736328 253.87792969 C-457.8490708 253.87848095 -457.8490708 253.87848095 -456.62657039 253.87904336 C-443.70014205 253.88395346 -430.77402482 253.85364986 -417.84767862 253.81027745 C-404.57891426 253.76654201 -391.31052294 253.76077651 -378.04171693 253.7900821 C-369.85724857 253.80696692 -361.67392113 253.79441834 -353.48958652 253.74393077 C-347.87329507 253.71212536 -342.25778581 253.7172826 -336.64150973 253.75115602 C-333.40301505 253.76960749 -330.16707408 253.76660879 -326.92866516 253.73056984 C-305.05468204 253.50311772 -305.05468204 253.50311772 -298.51644897 259.88919067 C-296.47800255 262.56266975 -296.47800255 262.56266975 -295 265 C-294.34 265.99 -293.68 266.98 -293 268 C-290.99198595 268.46387239 -290.99198595 268.46387239 -288.67578125 268.3984375 C-287.81146484 268.40230469 -286.94714844 268.40617187 -286.05664062 268.41015625 C-285.15107422 268.39855469 -284.24550781 268.38695312 -283.3125 268.375 C-281.9831543 268.39240234 -281.9831543 268.39240234 -280.62695312 268.41015625 C-274.03752873 268.3808916 -268.78774203 267.62844248 -263.8125 262.9375 C-259.61858011 256.14045742 -256.5814224 249.08735477 -258 241 C-259.92597349 234.78902039 -263.62658441 230.56663393 -269 227 C-274.40972805 224.52054131 -279.5580816 224.18282694 -285.22900391 226.08056641 C-286.42444824 226.54124512 -287.61989258 227.00192383 -288.8515625 227.4765625 C-302.00357413 231.78442618 -316.24886165 230.57965241 -329.92085266 230.40343094 C-334.11996711 230.35478481 -338.31923701 230.3355241 -342.51855469 230.31225586 C-349.93608855 230.26685065 -357.35324679 230.20137211 -364.77050781 230.12353516 C-376.73996443 229.99800222 -388.70957744 229.90783415 -400.67935562 229.81928253 C-436.51609313 229.54987948 -472.35308604 229.26280616 -508.18489838 228.58921623 C-510.35333906 228.54855317 -512.5218012 228.50901557 -514.69028473 228.47070503 C-541.13423609 227.99659808 -541.13423609 227.99659808 -546 227 C-547.23886813 224.52226374 -547.26561131 222.62020851 -547.44897461 219.85107422 C-547.5225267 218.77590546 -547.5960788 217.70073669 -547.67185974 216.59298706 C-547.74791946 215.42534821 -547.82397919 214.25770935 -547.90234375 213.0546875 C-548.07211581 210.5911355 -548.24204263 208.12759417 -548.41210938 205.6640625 C-548.67567401 201.77360327 -548.93696844 197.88301318 -549.19506836 193.9921875 C-549.44546442 190.24173661 -549.70468628 186.49197212 -549.96484375 182.7421875 C-550.03887924 181.58669403 -550.11291473 180.43120056 -550.18919373 179.24069214 C-550.6074348 173.2750528 -551.18528343 167.71329394 -553 162 C-554.70301554 160.27295319 -554.70301554 160.27295319 -557 160 C-559.85418219 160.348071 -562.26879341 161.0895978 -565 162 C-561.02977771 153.05218559 -551.45797046 146.90332064 -544 141 C-543.23945312 140.37222656 -542.47890625 139.74445313 -541.6953125 139.09765625 C-541.01210938 138.54980469 -540.32890625 138.00195312 -539.625 137.4375 C-539.03976562 136.96183594 -538.45453125 136.48617187 -537.8515625 135.99609375 C-535.28332628 134.61444768 -533.88984328 134.53540868 -531 135 C-528.82816414 136.38690605 -526.96718722 137.74228264 -525 139.375 C-523.84382399 140.29696779 -522.68757185 141.21884013 -521.53125 142.140625 C-520.94472656 142.61564453 -520.35820313 143.09066406 -519.75390625 143.58007812 C-500.72458121 158.98577891 -480.4409436 168.95437214 -457.8125 177.9375 C-456.71041199 178.37731705 -456.71041199 178.37731705 -455.58605957 178.82601929 C-453.46240544 179.67098182 -451.3354308 180.50691688 -449.20703125 181.33984375 C-448.57007828 181.59364807 -447.93312531 181.84745239 -447.27687073 182.10894775 C-440.43138566 184.76006076 -434.02255212 185.17181728 -426.78125 185.31640625 C-425.45168526 185.34832565 -425.45168526 185.34832565 -424.09526062 185.38088989 C-419.25301699 185.49381942 -414.41041873 185.5834477 -409.56762695 185.66918945 C-408.5952861 185.68651627 -407.62294525 185.70384308 -406.62113953 185.72169495 C-404.68700003 185.75603729 -402.7528466 185.78960346 -400.81867981 185.82237244 C-395.9751753 185.91220113 -391.15807638 186.07459512 -386.32421875 186.4140625 C-360.35543151 188.00915615 -333.20325702 173.53390257 -310.53125 162.3046875 C-309.22244873 161.67348999 -309.22244873 161.67348999 -307.88720703 161.02954102 C-306.29715548 160.25923908 -304.71805602 159.46552662 -303.15576172 158.64038086 C-295.92846173 155.15535912 -288.85161337 155.60490266 -281 156 C-280.07175415 156.04377777 -279.1435083 156.08755554 -278.18713379 156.13265991 C-271.66026975 156.44868914 -265.13802022 156.82425714 -258.6159668 157.22680664 C-255.14994525 157.43980789 -251.68344362 157.64315912 -248.21679688 157.84570312 C-246.01298642 157.97859717 -243.80920897 158.11204004 -241.60546875 158.24609375 C-240.56915817 158.3065538 -239.5328476 158.36701385 -238.46513367 158.42930603 C-237.51266251 158.48929276 -236.56019135 158.54927948 -235.57885742 158.61108398 C-234.74029709 158.66215805 -233.90173676 158.71323212 -233.0377655 158.76585388 C-231 159 -231 159 -229 160 C-227.70806044 165.28144042 -227.69309078 170.75285808 -227.5 176.1640625 C-227.45939453 177.26537506 -227.41878906 178.36668762 -227.37695312 179.50137329 C-226.69063577 199.62416506 -226.42210017 219.76125967 -226.0625 239.8918457 C-225.9803895 244.4679026 -225.89660482 249.0439277 -225.81234741 253.61994553 C-225.77072945 255.88922679 -225.72957258 258.15851656 -225.68887329 260.42781448 C-225.5867113 266.0976973 -225.47732097 271.76726296 -225.35302734 277.43670654 C-225.13046691 287.93091826 -224.9717593 298.41186627 -225.07049561 308.90864372 C-225.11111802 313.66719515 -225.11194785 318.42540064 -225.10961914 323.1841011 C-225.11972977 325.43057481 -225.14926967 327.67706038 -225.19995117 329.92298508 C-225.7622255 344.90813903 -225.7622255 344.90813903 -218.67578125 357.52490234 C-217.71226995 358.46018223 -216.73772008 359.38425731 -215.7512207 360.29525757 C-207.99875105 367.9167594 -204.54990439 379.67367912 -202 390 C-202 390.66 -202 391.32 -202 392 C-194.2943982 395.02516219 -185.7702078 397.57472989 -177.625 394.875 C-173.26513867 392.90948874 -170.10636913 390.15761667 -167.90234375 385.859375 C-165.95834362 379.6991668 -165.89058108 372.37627398 -167 366 C-168.3633796 363.43071321 -169.527162 362.21297732 -171.87449741 360.53513813 C-173.94803832 359.03752917 -175.82038057 357.44237286 -177.72288513 355.73466492 C-180.483213 353.28417873 -183.29589262 350.99067944 -186.24403381 348.77082825 C-197.90896228 339.57574021 -197.90896228 339.57574021 -199.3041687 332.25350952 C-199.81477648 326.83740814 -199.43700418 321.48736435 -199.05859375 316.07421875 C-198.97928468 314.05235782 -198.90821466 312.0301591 -198.84483337 310.00773621 C-198.70223415 305.78698291 -198.51674308 301.57139612 -198.29754639 297.35394287 C-197.98941558 291.1979578 -197.84919569 285.04796035 -197.76611328 278.88525391 C-197.75242392 277.89475477 -197.73873455 276.90425564 -197.72463036 275.88374138 C-197.69723263 273.88597925 -197.67006083 271.888214 -197.643116 269.89044571 C-197.56709047 264.88016769 -197.45301961 259.87083729 -197.33789062 254.86132812 C-197.31523951 253.87015047 -197.29258839 252.87897282 -197.26925087 251.85775948 C-197.22333486 249.85196809 -197.17730589 247.84617928 -197.13116455 245.84039307 C-197.03863762 241.76024318 -196.95148476 237.67998536 -196.86431313 233.59971809 C-196.48942383 216.08922253 -196.10916782 198.5782744 -195.49609375 181.07421875 C-195.44329002 179.4937249 -195.44329002 179.4937249 -195.38941956 177.88130188 C-195.19806279 172.84964818 -194.82976451 167.96778849 -194 163 C-188.05482717 160.52713669 -181.96559313 160.30955488 -175.62109375 159.81640625 C-173.14778044 159.60879564 -170.67447335 159.40111098 -168.20117188 159.19335938 C-164.32664002 158.87694621 -160.45187689 158.56365375 -156.5769043 158.25268555 C-152.82009578 157.94855952 -149.0643783 157.63289222 -145.30859375 157.31640625 C-143.60007484 157.18498985 -143.60007484 157.18498985 -141.85704041 157.05091858 C-128.47365067 156.57870329 -128.47365067 156.57870329 -117.16600037 151.02955627 C-115.8983838 148.82312544 -115.52267146 147.27205747 -115.3125 144.75 C-115.209375 143.5125 -115.10625 142.275 -115 141 C-126.26929833 139.08360297 -137.40940122 138.44091073 -148.8125 138 C-150.77580674 137.91892394 -152.73910399 137.83761785 -154.70239258 137.75610352 C-175.64492565 136.9070276 -196.5971311 136.29650498 -217.5480957 135.69726562 C-240.54757456 135.03722813 -240.54757456 135.03722813 -251.23828125 134.56640625 C-252.00142136 134.5390892 -252.76456146 134.51177216 -253.55082703 134.48362732 C-257.19420249 134.30432067 -258.8887517 134.07416553 -262 132 C-259.01669981 128.99168504 -256.02990259 125.98689606 -253.04003906 122.98510742 C-252.02673848 121.96682708 -251.01434288 120.94764526 -250.00292969 119.92749023 C-244.19415733 114.06983217 -238.38989507 108.23356844 -232 103 C-231.40356847 102.48604455 -230.80713694 101.9720891 -230.19263172 101.44255924 C-227.6382569 99.76200479 -226.21293299 99.58623308 -223.18156433 99.49693298 C-222.23241559 99.46268754 -221.28326685 99.4284421 -220.30535603 99.39315891 C-219.28443961 99.37161716 -218.2635232 99.3500754 -217.21166992 99.32788086 C-216.14365489 99.29494147 -215.07563986 99.26200209 -213.97526073 99.22806454 C-210.65030009 99.13269273 -207.32575086 99.06140672 -204 99 C-203.01309299 98.98176807 -202.02618599 98.96353615 -201.00937271 98.94475174 C-195.2234715 98.84898513 -189.43788364 98.80009245 -183.65130043 98.77020454 C-180.51009227 98.75335266 -177.3689838 98.73013027 -174.22782898 98.70530701 C-165.31917482 98.63559755 -156.4104919 98.57392747 -147.50170898 98.52319336 C-142.00156135 98.49143391 -136.50155194 98.45021962 -131.00151634 98.40299797 C-128.92073201 98.38702413 -126.83991643 98.37468135 -124.75908852 98.36609077 C-121.86960251 98.35395295 -118.98044585 98.32982549 -116.09106445 98.30297852 C-115.23972427 98.30238937 -114.38838409 98.30180023 -113.51124573 98.30119324 C-107.19574013 98.22334056 -102.93684131 97.24422193 -98.2578125 92.76953125 C-97.58363281 92.13080078 -96.90945313 91.49207031 -96.21484375 90.83398438 C-95.52519531 90.16689453 -94.83554687 89.49980469 -94.125 88.8125 C-93.10212891 87.84086914 -93.10212891 87.84086914 -92.05859375 86.84960938 C-88.8206099 83.76273143 -85.63176912 80.63599204 -82.4921875 77.44921875 C-80.12093276 75.0608297 -77.67774322 72.81806428 -75.125 70.625 C-70.51491535 66.64558204 -66.26764344 62.34047012 -62 58 C-57.15359596 53.07089282 -52.27002381 48.31027789 -47.02734375 43.8046875 C-43.18001943 40.37990169 -39.60985315 36.67145474 -36 33 C-31.06052354 27.97623213 -26.08215762 23.11149083 -20.73730469 18.51904297 C-18.58522943 16.63733805 -16.60041507 14.62770666 -14.625 12.5625 C-10.07531222 7.94135116 -5.14249433 3.94007394 0 0 Z M-397.5859375 294.9609375 C-398.05257812 295.63382812 -398.51921875 296.30671875 -399 297 C-399.66902344 297.88558594 -399.66902344 297.88558594 -400.3515625 298.7890625 C-404.00407396 304.62811143 -404.03695481 311.35891441 -403 318 C-401.7510945 321.09943738 -401.7510945 321.09943738 -400.125 324.125 C-396.24014888 331.74844903 -395.6791957 338.97600798 -395.17773438 347.38525391 C-394.99084897 350.13462572 -394.71118083 352.86509962 -394.421875 355.60546875 C-394.25787814 357.46592381 -394.09636138 359.32659939 -393.9375 361.1875 C-393.78897583 362.47817383 -393.78897583 362.47817383 -393.63745117 363.79492188 C-393.31485635 368.4636492 -393.68171837 371.24285468 -396.75390625 374.86328125 C-398.14729691 376.26438861 -399.56590083 377.64058876 -401 379 C-402.39280951 380.40734012 -403.78549709 381.8148035 -405.17588806 383.22453308 C-408.29234153 386.36955102 -411.45171233 389.47152588 -414.60253906 392.58203125 C-420.11091892 398.02624237 -425.5511862 403.466535 -430.58203125 409.36376953 C-432.44214002 411.51019669 -434.44894422 413.47445594 -436.5 415.4375 C-445.14164929 423.58809448 -445.14164929 423.58809448 -449.25 434.1875 C-448.91628186 439.27670164 -447.70332936 443.29667064 -444 447 C-442.03387255 447.39562129 -442.03387255 447.39562129 -439.8125 447.375 C-439.07644531 447.40335938 -438.34039063 447.43171875 -437.58203125 447.4609375 C-430.41385782 446.18129383 -425.39670257 440.8787029 -420.375 436 C-418.96664547 434.65442477 -417.55778413 433.30937983 -416.1484375 431.96484375 C-415.45202148 431.29694824 -414.75560547 430.62905273 -414.03808594 429.94091797 C-411.06255111 427.10724501 -408.03245511 424.33494042 -405 421.5625 C-400.8283002 417.73481894 -396.77873898 413.8135205 -392.80859375 409.77734375 C-391.01618841 408.0159087 -389.16182816 406.38033199 -387.25 404.75 C-386.63769531 404.18877441 -386.02539062 403.62754883 -385.39453125 403.04931641 C-383 401 -383 401 -379.98413086 399.03051758 C-375.174215 395.56713647 -371.62987468 392.02313467 -370.38787842 386.06207275 C-369.57075584 377.37594562 -369.98316812 368.64157617 -370.3125 359.9375 C-370.44558127 355.99360878 -370.55972797 352.05329773 -370.61820984 348.1075592 C-370.65554117 345.6644399 -370.73504285 343.2214603 -370.86433411 340.78147888 C-370.98351264 333.88790876 -370.01943421 330.31481385 -365.51928711 324.97998047 C-364.70149277 324.13764862 -363.88369843 323.29531677 -363.04112244 322.42745972 C-359.78520815 318.55527614 -359.86778001 315.04886046 -360.25 310.1875 C-360.27320313 308.97803711 -360.27320313 308.97803711 -360.296875 307.74414062 C-360.53764301 301.60957247 -361.8569333 297.03316584 -366.4375 292.6875 C-374.70188326 287.24510127 -390.96638306 287.37414223 -397.5859375 294.9609375 Z " fill="#FFFFFF" transform="translate(995,216)"/>
<path d="M0 0 C5.1673954 1.4879511 9.4733592 3.77443266 14.0625 6.5 C15.18241333 7.1643103 15.18241333 7.1643103 16.32495117 7.84204102 C32.44547725 17.58464815 45.84027824 30.65294084 59.09204102 43.90673828 C60.69204519 45.50453893 62.29993615 47.09411551 63.90820312 48.68359375 C70.39201513 55.13238598 76.31707767 61.82225494 82 69 C82.99932708 70.19784557 84.00263155 71.39239616 85.01171875 72.58203125 C100.03068058 90.56627529 111.14840772 111.17954976 122.22021484 131.72070312 C123.81432198 134.65788378 125.43880845 137.57448992 127.08203125 140.484375 C127.92995677 142.01026706 128.77763831 143.53629476 129.625 145.0625 C130.00954346 145.72805908 130.39408691 146.39361816 130.7902832 147.0793457 C133.12611202 151.36103241 133.12611202 151.36103241 132.58984375 154.078125 C130.27265294 156.87925001 127.65041323 159.28239142 124.9375 161.6875 C123.75380982 162.75626564 122.57152443 163.82658911 121.390625 164.8984375 C120.81119141 165.42405273 120.23175781 165.94966797 119.63476562 166.49121094 C117.42013936 168.53517604 115.29972725 170.6633457 113.1875 172.8125 C110.56372803 175.47443593 107.90098926 178.00612473 105.0625 180.4375 C101.8896408 183.15619248 98.93661618 186.02751675 96 189 C92.45767801 192.58558699 88.82444339 195.94891662 84.99609375 199.22265625 C81.93333273 201.94977223 79.09776507 204.89404637 76.21875 207.8125 C73.59228878 210.40196881 70.83023542 212.78836964 68.03125 215.1875 C64.96025683 217.92777083 62.11213124 220.87946902 59.22265625 223.80859375 C56.5729856 226.42101068 53.78827197 228.83302621 50.96484375 231.25390625 C48.89179676 233.09615675 46.94564198 235.02401662 45 237 C42.44009866 239.59982183 39.8322046 242.06268398 37.0625 244.4375 C34.07198284 247.00665271 31.26883316 249.69317256 28.5 252.5 C25.11758601 255.9288279 21.61929558 259.12048518 17.96484375 262.25390625 C15.18575486 264.7235936 12.61139504 267.37903322 10.00390625 270.02734375 C7.41753849 272.57337829 4.6846472 274.92021557 1.93359375 277.28515625 C0.04505403 278.96004299 -1.73155648 280.69947587 -3.5 282.5 C-5.89053167 284.93389732 -8.35046262 287.21355559 -10.9375 289.4375 C-13.74576347 291.85617779 -16.39970593 294.35899683 -19 297 C-22.2215855 300.27202128 -25.58592145 303.29316055 -29.06640625 306.28515625 C-31.56431556 308.5004738 -33.88024989 310.8689817 -36.21875 313.25 C-38.71896185 315.70634849 -41.37680516 317.96309368 -44.03125 320.25 C-45.93023071 321.93798286 -47.72005988 323.68769734 -49.5 325.5 C-52.53832417 328.59356643 -55.7476532 331.42105507 -59.03125 334.25 C-60.93023071 335.93798286 -62.72005988 337.68769734 -64.5 339.5 C-67.53832417 342.59356643 -70.7476532 345.42105507 -74.03125 348.25 C-75.93023071 349.93798286 -77.72005988 351.68769734 -79.5 353.5 C-82.53832417 356.59356643 -85.7476532 359.42105507 -89.03125 362.25 C-91.50619257 364.44994895 -93.80713674 366.79381445 -96.12524414 369.15649414 C-97.93223688 370.93336641 -99.79344934 372.59436873 -101.71484375 374.24609375 C-106.63513124 378.52347273 -111.35709283 382.99797227 -116.08789062 387.48242188 C-119.30897476 390.52194831 -122.54948346 393.53512332 -125.87109375 396.46484375 C-126.42595459 396.95460693 -126.98081543 397.44437012 -127.55249023 397.94897461 C-129 399 -129 399 -131 399 C-131.8215926 394.51921349 -132.27411152 390.10805176 -132.5625 385.5625 C-132.64628906 384.30566406 -132.73007813 383.04882812 -132.81640625 381.75390625 C-132.83719238 381.04121582 -132.85797852 380.32852539 -132.87939453 379.59423828 C-132.97343914 377.57132726 -133.17305516 375.55324251 -133.41357422 373.54248047 C-133.92078881 367.0983068 -134.03583797 362.34876482 -129.6733551 357.22950745 C-127.22710725 354.68675343 -124.64186524 352.33632709 -122 350 C-120.95625401 349.02313167 -119.91585873 348.04267047 -118.87890625 347.05859375 C-114.71760452 343.14108345 -110.43985117 339.36768243 -106.09375 335.65625 C-99.90645075 330.28710602 -94.25608178 324.32165146 -88.5 318.5 C-75.33466737 305.18469613 -75.33466737 305.18469613 -69.15039062 299.92773438 C-63.69878257 295.040598 -58.64595685 289.70457638 -53.5 284.5 C-40.24753663 271.09657284 -40.24753663 271.09657284 -34.05664062 265.83398438 C-29.15319775 261.46139856 -24.61439542 256.67421166 -20 252 C-8.1034591 239.94924469 -8.1034591 239.94924469 -1.734375 234.51611328 C0.99179041 232.13302105 3.48291252 229.53710793 6 226.9375 C14.68967042 218.17032822 22.22812673 213.5307605 34.1953125 210.078125 C40.63703212 208.14719185 44.52305433 206.91080763 48 201 C51.22987419 192.11784598 52.57241086 181.33366958 51 172 C47.30385801 166.48792739 42.35143745 163.63056463 36 162 C33.28537738 161.78928837 30.70930192 161.67476832 28 161.6875 C26.97132813 161.66333008 26.97132813 161.66333008 25.921875 161.63867188 C20.43040771 161.63343193 16.61532419 162.65706142 12.48803711 166.35449219 C7.07948168 172.10026962 4.36716155 179.33262372 1.23242188 186.46289062 C-2.94078353 195.62226352 -8.29299388 201.6944081 -15.90234375 208.16015625 C-19.79436128 211.57382526 -23.37213798 215.31022908 -27 219 C-31.86652389 223.94957037 -36.77046069 228.73330186 -42.03515625 233.2578125 C-45.51574483 236.34398051 -48.74398669 239.68039267 -52 243 C-56.52978713 247.61825953 -61.12959484 252.0319728 -66.03125 256.25390625 C-69.33755513 259.18628401 -72.40718534 262.34583759 -75.5 265.5 C-79.82091697 269.86747515 -84.14700523 274.1063392 -88.84765625 278.06640625 C-92.02354166 280.91951564 -94.99739716 283.96640609 -98 287 C-102.20707857 291.2462681 -106.41717135 295.40216156 -110.98046875 299.26953125 C-113.70413576 301.60335037 -116.35051541 304.02036715 -119 306.4375 C-119.94875 307.30246094 -120.8975 308.16742188 -121.875 309.05859375 C-122.57625 309.69925781 -123.2775 310.33992188 -124 311 C-124.66 310.67 -125.32 310.34 -126 310 C-126.22064989 301.60416025 -125.63356626 293.33944803 -124.828125 284.99267578 C-124.62472076 282.87208881 -124.43298395 280.75066057 -124.2421875 278.62890625 C-123.88503318 274.7456338 -123.45336073 270.87330073 -123 267 C-122.91202148 266.06961914 -122.82404297 265.13923828 -122.73339844 264.18066406 C-122.27290819 260.93575176 -121.86314956 258.81838965 -119.44165039 256.52246094 C-117.35595792 255.14997113 -115.25758103 254.0656728 -113 253 C-112.21383301 252.60329102 -111.42766602 252.20658203 -110.61767578 251.79785156 C-108.11178355 250.54615018 -105.58874345 249.33502326 -103.0625 248.125 C-96.07193266 244.70485633 -89.8171307 241.23406165 -84 236 C-82.93757163 235.18740633 -81.87507635 234.37490015 -80.8125 233.5625 C-66.34181777 220.37810063 -64.88546877 203.64232962 -63.32275391 185.22338867 C-63.14793434 183.186142 -62.96488639 181.14974929 -62.78125 179.11328125 C-62.6275293 177.31564331 -62.6275293 177.31564331 -62.47070312 175.48168945 C-61.17531145 165.89995675 -61.17531145 165.89995675 -58.35351562 163.73925781 C-57.71091797 163.56233398 -57.06832031 163.38541016 -56.40625 163.203125 C-55.69082031 162.99107422 -54.97539062 162.77902344 -54.23828125 162.56054688 C-53.49964844 162.37556641 -52.76101562 162.19058594 -52 162 C-51.31292969 161.80986328 -50.62585938 161.61972656 -49.91796875 161.42382812 C-48.51827822 161.04293306 -47.11536446 160.67371627 -45.7097168 160.31542969 C-19.94871537 153.72361892 2.05117317 139.98809846 16.26464844 116.95019531 C18.97112676 112.3708088 21.55088941 107.72205605 24 103 C24.52110352 102.19135498 25.04220703 101.38270996 25.57910156 100.54956055 C27.68856445 95.27989028 27.56737185 90.20902506 27.64453125 84.578125 C27.66400314 83.36413025 27.68347504 82.1501355 27.70353699 80.89935303 C27.7362251 78.32736595 27.76004307 75.75525301 27.77563477 73.18310547 C27.81200093 69.30324462 27.91786199 65.42922773 28.02539062 61.55078125 C28.25584332 45.84631797 26.57503544 34.66388076 17 22 C16.26177002 20.99412842 15.52354004 19.98825684 14.76293945 18.9519043 C12.92624013 16.54776142 10.99036795 14.27799337 9 12 C7.32718912 9.9842498 5.66057123 7.96334509 4 5.9375 C3.236875 5.01839844 2.47375 4.09929687 1.6875 3.15234375 C0 1 0 1 0 0 Z " fill="#FFFFFF" transform="translate(307,169)"/>
<path d="M0 0 C7.87270878 5.07123379 15.08542401 10.86919458 21.34375 17.84375 C21.84898193 18.4008667 22.35421387 18.9579834 22.87475586 19.53198242 C36.69614776 35.02274315 38.13608215 50.23519265 37.09375 70.40625 C35.77862377 84.539092 29.23356008 93.9629841 19.28125 103.65625 C18.52521484 104.419375 17.76917969 105.1825 16.99023438 105.96875 C8.37675253 114.48677126 0.28327556 119.62668959 -11.66894531 121.95849609 C-13.20363259 122.26563451 -14.73186155 122.60638264 -16.25292969 122.97509766 C-32.39628762 126.75599138 -43.91619705 122.06032072 -58.26171875 115.1015625 C-58.87416946 114.81013367 -59.48662018 114.51870483 -60.11763 114.21844482 C-63.42708989 112.63888084 -66.66083935 110.99044652 -69.86572266 109.20776367 C-84.67784469 101.46142576 -100.36508518 102.23061554 -116.62286377 102.44891357 C-119.64463056 102.47516452 -122.66482672 102.44589675 -125.68649292 102.41767311 C-144.33778277 102.27422576 -160.76658617 104.02542013 -178.64257812 109.77854919 C-180.90625 110.40625 -180.90625 110.40625 -183.90625 110.40625 C-182.23784244 98.07736815 -166.32737496 85.62697513 -156.94921875 78.18359375 C-144.90689764 69.0391196 -131.74000523 61.55779922 -118.66674805 54.00927734 C-117.75578369 53.48027832 -116.84481934 52.9512793 -115.90625 52.40625 C-115.00962646 51.90222656 -114.11300293 51.39820313 -113.18920898 50.87890625 C-110.04902738 48.85328595 -108.30868054 46.08988084 -106.28125 43.03125 C-101.26324686 35.73848225 -95.7200908 29.07196778 -89.90625 22.40625 C-89.21789062 21.58253906 -88.52953125 20.75882813 -87.8203125 19.91015625 C-65.13488114 -6.8030966 -31.35288694 -18.55708943 0 0 Z M-45.21875 41.78125 C-48.4499876 46.80761959 -49.19929234 51.49112039 -49.21875 57.40625 C-49.23550781 58.581875 -49.25226563 59.7575 -49.26953125 60.96875 C-48.70951652 66.26781414 -46.71672079 70.20295241 -42.65625 73.65625 C-36.90512832 78.23318434 -30.78940746 78.87607924 -23.62109375 78.71875 C-17.87360806 78.05716891 -14.21560435 75.65741083 -10.09375 71.71875 C-5.27325513 64.41914348 -4.05478792 57.60962941 -5.46875 48.96875 C-7.70910238 43.41657237 -11.0570354 38.66218054 -16.64453125 36.19921875 C-27.04723239 33.67017883 -37.51116639 33.86535332 -45.21875 41.78125 Z " fill="#FFFFFF" transform="translate(267.90625,177.59375)"/>
<path d="M0 0 C1.07314453 -0.05414063 2.14628906 -0.10828125 3.25195312 -0.1640625 C8.77181298 -0.25870798 12.53213305 -0.07610917 16.8515625 3.56640625 C19.76302518 6.54629832 22.34706385 9.76756725 24.84667969 13.09716797 C29.18848271 18.8212774 29.18848271 18.8212774 35.08984375 22.68359375 C43.77879419 23.3238322 52.09283977 17.54392964 59.4375 13.5 C74.71267111 5.28624912 74.71267111 5.28624912 83.4375 4.5 C84.613125 4.33757812 85.78875 4.17515625 87 4.0078125 C92.79268621 3.52898158 96.78346557 3.38016329 101.703125 6.7109375 C104.6302087 9.38659771 107.03540134 12.3501998 109.4375 15.5 C110.19353516 16.40685547 110.19353516 16.40685547 110.96484375 17.33203125 C115.4620895 23.65378239 114.97097122 33.38938828 113.9375 40.75 C112.48053154 46.52254592 109.44394393 50.19586364 105.4375 54.5 C104.85000977 55.13905273 104.26251953 55.77810547 103.65722656 56.43652344 C101.60703029 58.64744063 99.52797093 60.82715542 97.4375 63 C96.42308838 64.07918701 96.42308838 64.07918701 95.38818359 65.18017578 C92.41225941 68.19363284 90.19308624 70.22885661 86.171875 71.671875 C80.72132504 71.42101287 75.87582258 69.86504665 70.6875 68.25 C50.93556341 62.47050817 31.60093766 60.70749475 11.11737061 59.78912354 C7.48360835 59.62157413 3.87901262 59.37311252 0.26171875 58.9921875 C-14.15771356 57.74375883 -26.80503656 64.49270207 -39.5625 70.5 C-40.62887695 70.99677246 -41.69525391 71.49354492 -42.79394531 72.00537109 C-55.54105873 78.03182331 -66.48965487 84.61595861 -76.5625 94.5 C-77.55271882 95.43820406 -78.54359457 96.37571529 -79.53515625 97.3125 C-85.7359298 103.31710052 -91.17839524 109.76733416 -96.5625 116.5 C-97.86347198 118.07211145 -99.17492021 119.63565398 -100.5 121.1875 C-101.04527344 121.83074219 -101.59054688 122.47398437 -102.15234375 123.13671875 C-103.5625 124.5 -103.5625 124.5 -105.5625 124.5 C-105.63762833 118.5267195 -105.69155597 112.55372441 -105.72729492 106.58007812 C-105.74222084 104.5552897 -105.76256893 102.53053266 -105.78881836 100.50585938 C-106.07542159 77.80238776 -104.10248109 60.23411225 -88.08984375 42.7421875 C-82.67144955 37.93514226 -78.08417805 36.97979897 -71.05859375 37.12890625 C-66.31904184 37.63198718 -61.83115112 38.7529912 -57.25830078 40.07641602 C-52.90896768 41.31006301 -49.07909853 41.83930112 -44.5625 41.5 C-38.05986805 36.66470958 -33.72347514 28.60627549 -29.140625 22.0234375 C-13.93648486 0.29391532 -13.93648486 0.29391532 0 0 Z " fill="#FFFFFF" transform="translate(242.5625,72.5)"/>
<path d="M0 0 C-0.47192502 6.24774342 -1.96259749 10.80238945 -4.796875 16.35546875 C-5.18191193 17.13108658 -5.56694885 17.90670441 -5.96365356 18.70582581 C-7.21184491 21.20700335 -8.4791879 23.69774812 -9.75 26.1875 C-10.39609222 27.46530334 -10.39609222 27.46530334 -11.05523682 28.7689209 C-25.72722824 57.76082508 -43.89859013 83.92257726 -65.05834961 108.55615234 C-66.91522224 110.72275051 -68.75498747 112.90156625 -70.57714844 115.09741211 C-78.13994052 124.15222335 -86.25613841 132.56566514 -94.61987305 140.88061523 C-96.83426831 143.08416166 -99.03760064 145.29837513 -101.24023438 147.51367188 C-102.66602491 148.93814264 -104.09243475 150.36199386 -105.51953125 151.78515625 C-106.49162285 152.76332054 -106.49162285 152.76332054 -107.48335266 153.76124573 C-111.40977772 157.64783736 -115.42047901 160.90556962 -120 164 C-121.70502929 161.01241758 -122.27547012 158.77049693 -122.39477539 155.34375 C-122.44981483 153.95487831 -122.44981483 153.95487831 -122.50596619 152.53794861 C-122.53622391 151.53542557 -122.56648163 150.53290253 -122.59765625 149.5 C-122.63657486 148.44885513 -122.67549347 147.39771027 -122.71559143 146.31471252 C-122.8404138 142.87673021 -122.95179555 139.43846359 -123.0625 136 C-123.14506209 133.62359532 -123.22823628 131.24721183 -123.31201172 128.87084961 C-123.51676152 122.98391649 -123.70954957 117.09666963 -123.89715576 111.20916748 C-123.99031288 108.30227834 -124.08639393 105.39550935 -124.18408203 102.48876953 C-124.456041 94.33163256 -124.68036745 86.17723085 -124.82524109 78.01683044 C-124.91167435 73.96147282 -125.12611126 69.93480606 -125.43539429 65.89054871 C-127.0068489 44.93267048 -127.0068489 44.93267048 -121.9375 38.12109375 C-118.87722212 34.75093422 -115.5047968 31.95141142 -111.81152344 29.30126953 C-109.59628055 27.70999667 -107.62213474 25.91698226 -105.625 24.0625 C-105.03074219 23.56234375 -104.43648437 23.0621875 -103.82421875 22.546875 C-100.92454256 20.08804893 -98.15736487 17.48065435 -95.37109375 14.89453125 C-88.84657334 9.6813642 -83.34485517 8.14777517 -75.1875 7.0625 C-74.0732666 6.90555664 -72.9590332 6.74861328 -71.81103516 6.58691406 C-58.86736851 4.84899025 -45.86717874 3.56371346 -32.875 2.25 C-31.76474457 2.13713654 -30.65448914 2.02427307 -29.5105896 1.9079895 C-26.29667156 1.58382439 -23.08212564 1.26699665 -19.8671875 0.953125 C-18.9055217 0.85646042 -17.9438559 0.75979584 -16.95304871 0.66020203 C-11.27228123 0.11735109 -5.70680969 -0.08897518 0 0 Z " fill="#FFFFFF" transform="translate(877,681)"/>
<path d="M0 0 C3 1 3 1 4.15039062 3.07348633 C7.77822459 13.69898935 7.60721002 24.24437676 7.52148438 35.36645508 C7.49997734 38.69100317 7.52139815 42.01340677 7.546875 45.33789062 C7.54423259 47.47917137 7.53910942 49.6204508 7.53125 51.76171875 C7.53934692 52.74113937 7.54744385 53.72056 7.55578613 54.72966003 C7.23266516 78.77546075 -15.03582684 98.19416073 -30.8125 114 C-31.55309662 114.74236404 -31.55309662 114.74236404 -32.30865479 115.49972534 C-38.02758998 121.21711623 -43.85577285 126.74037797 -50 132 C-51.60768373 133.45445517 -53.21239715 134.91220895 -54.8125 136.375 C-59.17530423 140.3168905 -63.68703635 144.03370787 -68.2578125 147.73046875 C-71.84343143 150.69805365 -75.28286231 153.80985185 -78.7109375 156.95703125 C-79.46632813 157.63121094 -80.22171875 158.30539062 -81 159 C-81.70342529 159.69262939 -82.40685059 160.38525879 -83.1315918 161.09887695 C-86.83043997 163.55039885 -89.89700072 163.54217795 -94.18359375 163.4609375 C-94.98414688 163.46074615 -95.78470001 163.46055481 -96.60951233 163.46035767 C-99.21944946 163.45291125 -101.82787532 163.41503808 -104.4375 163.375 C-106.23436979 163.36127845 -108.03124509 163.34826267 -109.828125 163.3359375 C-125.26463935 163.18528668 -140.62061409 162.33240763 -156 161 C-156 156.78533327 -154.06725154 155.51873411 -151.29524708 152.50574112 C-149.74852452 150.8171707 -148.20824718 149.12267658 -146.67407513 147.42269516 C-139.37306 139.36778479 -131.78070898 131.64450234 -124.08325195 123.96972656 C-122.72182566 122.60858308 -121.36062099 121.24721791 -119.99961853 119.88565063 C-116.34146405 116.22721183 -112.68025718 112.57184217 -109.01845193 108.91705799 C-105.17831314 105.08321401 -101.34104785 101.24649606 -97.50346375 97.41009521 C-90.25264871 90.16237555 -82.99929068 82.91720651 -75.74499243 75.67297339 C-67.47929902 67.41849711 -59.21647972 59.16114632 -50.95388854 50.90356493 C-33.97243232 33.93253244 -16.98740916 16.96507365 0 0 Z " fill="#FFFFFF" transform="translate(964,122)"/>
<path d="M0 0 C3.72539893 35.34989652 -20.26598595 79.22588616 -41.5625 105.875 C-43.02615724 107.59664 -44.50577227 109.3048244 -46 111 C-46.85078125 111.97195313 -47.7015625 112.94390625 -48.578125 113.9453125 C-66.41036937 134.01825773 -88.31480511 150.26490517 -112.875 161.25 C-113.51042725 161.5377832 -114.14585449 161.82556641 -114.80053711 162.12207031 C-118.65924266 163.75453975 -121.82133431 164.37420887 -126 164 C-129.93225768 160.06774232 -128.35712347 146.63113396 -128.55859375 141.2578125 C-128.60084579 140.13988312 -128.64309784 139.02195374 -128.68663025 137.87014771 C-129.15587625 124.20654836 -129.10891814 110.54470459 -129.0625 96.875 C-129.05746565 94.2473967 -129.05290623 91.61979245 -129.04882812 88.9921875 C-129.03799714 82.66143691 -129.0214181 76.33072319 -129 70 C-126.48323719 69.36782914 -123.96628363 68.73643485 -121.44921875 68.10546875 C-120.74631714 67.9288269 -120.04341553 67.75218506 -119.31921387 67.57019043 C-115.92121614 66.71897682 -112.52147412 65.88777321 -109.11083984 65.08789062 C-83.32739668 59.02658674 -60.00790449 44.6916631 -39 29 C-38.14317627 28.36263916 -38.14317627 28.36263916 -37.26904297 27.71240234 C-29.92731822 22.22405522 -22.80974127 16.46113785 -15.73022461 10.64086914 C-12.40556569 7.91496396 -9.05277703 5.2302753 -5.64453125 2.609375 C-4.99460205 2.10889648 -4.34467285 1.60841797 -3.67504883 1.09277344 C-2 0 -2 0 0 0 Z " fill="#FFFFFF" transform="translate(1006,475)"/>
<path d="M0 0 C0.66 0 1.32 0 2 0 C4.00816448 41.57644248 -10.06484937 81.47426866 -37.6875 112.375 C-39.12389383 113.91769735 -40.56138482 115.45937392 -42 117 C-43.52177452 118.72833842 -45.04260073 120.45751226 -46.5625 122.1875 C-50.46047127 126.50000681 -54.50601364 130.32040985 -59 134 C-60.49853516 135.25490234 -60.49853516 135.25490234 -62.02734375 136.53515625 C-80.47202021 151.78570956 -100.82970748 164.62971237 -120.75073242 177.83886719 C-121.50827316 178.3416066 -122.2658139 178.84434601 -123.04631042 179.36231995 C-124.46532456 180.30367534 -125.88503957 181.24397549 -127.30561829 182.18296814 C-130.54428584 184.33136421 -133.72706728 186.52218768 -136.859375 188.82348633 C-140 191 -140 191 -142 191 C-142.41603834 184.03878707 -142.70534735 177.07825908 -142.92987061 170.10827637 C-142.97905219 168.62974704 -143.03127523 167.15131724 -143.08575439 165.67297363 C-143.27558498 160.51157862 -143.41694084 155.35190147 -143.50683594 150.18777466 C-143.54377183 148.44577355 -143.59491059 146.70401236 -143.66064453 144.96286011 C-144.17076055 130.98825182 -144.17076055 130.98825182 -141.36157227 126.2175293 C-139.35654305 124.17801613 -137.37113333 122.58974028 -135 121 C-134.09894531 120.22011719 -133.19789063 119.44023437 -132.26953125 118.63671875 C-131.45871094 117.99347656 -130.64789062 117.35023438 -129.8125 116.6875 C-126.35902456 113.91811464 -122.95578475 111.1128834 -119.61132812 108.21264648 C-103.75977347 94.52244031 -86.44619502 82.33898274 -69.2578125 70.390625 C-53.49219242 59.3978043 -39.43611857 46.67210757 -27 32 C-26.07501361 30.92639799 -25.14915396 29.85354805 -24.22265625 28.78125 C-17.4074876 20.88197379 -10.76469026 12.86108135 -4.18359375 4.765625 C-2.83356955 3.13908982 -1.42362819 1.56251874 0 0 Z " fill="#FFFFFF" transform="translate(1018,340)"/>
<path d="M0 0 C25.67996198 -0.11170649 51.35985861 -0.20291384 77.04003143 -0.24805355 C79.15321862 -0.25179787 81.26640577 -0.25555944 83.3795929 -0.25933838 C84.42140481 -0.26119843 85.46321671 -0.26305848 86.53659868 -0.26497489 C93.86557062 -0.2790794 101.1944644 -0.30352957 108.52339172 -0.33239746 C117.50225207 -0.36759489 126.48100841 -0.38842748 135.4599396 -0.39116323 C140.0701829 -0.39293117 144.68017749 -0.40103484 149.29035568 -0.42656708 C153.54398723 -0.44989373 157.79721969 -0.45410958 162.05089903 -0.44392478 C163.5849174 -0.44345771 165.11895706 -0.44963553 166.65291262 -0.46352589 C177.23712134 -0.55404586 188.19663428 0.20011615 197.84992981 5.02676392 C197.84992981 5.68676392 197.84992981 6.34676392 197.84992981 7.02676392 C181.20193515 10.18969874 164.88312916 12.93238515 147.9256897 13.56945801 C146.7849694 13.61243133 145.64424911 13.65540466 144.46896154 13.69968021 C132.44088865 14.12125838 120.42191338 14.16775534 108.38777161 14.15615845 C105.96437046 14.15751862 103.54096953 14.15930197 101.11756897 14.16146851 C95.28534185 14.16550932 89.45312931 14.16498047 83.62090179 14.16205586 C78.85836922 14.15976977 74.09584023 14.15950296 69.33330727 14.16057968 C68.64765614 14.16073291 67.96200502 14.16088615 67.25557658 14.16104402 C65.86115338 14.16136386 64.46673017 14.16168808 63.07230697 14.16201662 C50.06643047 14.16485208 37.06056108 14.16161711 24.05468575 14.15621625 C13.00636834 14.15176915 1.95806147 14.15251057 -9.09025574 14.15713501 C-22.02956524 14.16254871 -34.96886851 14.16455776 -47.90817899 14.16152275 C-49.30243536 14.16120433 -50.69669173 14.16088996 -52.0909481 14.16057968 C-52.77626628 14.16042541 -53.46158445 14.16027113 -54.16766984 14.16011218 C-58.88923047 14.15926569 -63.6107858 14.16072055 -68.33234596 14.16305923 C-93.70456526 14.17388114 -119.06907902 14.13673394 -144.43595886 13.56924438 C-145.81212936 13.53892541 -145.81212936 13.53892541 -147.21610129 13.50799394 C-166.34926987 13.07332684 -185.21299147 11.9477368 -204.15007019 9.02676392 C-205.22675964 8.86071655 -206.3034491 8.69466919 -207.4127655 8.52359009 C-208.89148132 8.27766113 -208.89148132 8.27766113 -210.40007019 8.02676392 C-211.70717957 7.81020142 -211.70717957 7.81020142 -213.04069519 7.58926392 C-215.15007019 7.02676392 -215.15007019 7.02676392 -217.15007019 5.02676392 C-206.00465994 1.22719224 -193.76061761 1.78233725 -182.10319519 1.49942017 C-180.88287472 1.46879329 -180.88287472 1.46879329 -179.63790131 1.43754768 C-151.20460043 0.74058641 -122.75757758 0.65140269 -94.3172102 0.47894621 C-91.89013005 0.46420354 -89.46305126 0.44925357 -87.0359726 0.43426895 C-61.07457292 0.27465681 -35.11305786 0.14931816 -9.15140343 0.03953934 C-6.10093474 0.02655477 -3.05046729 0.013309 0 0 Z " fill="#0884E5" transform="translate(552.1500701904297,1030.9732360839844)"/>
<path d="M0 0 C3.0540714 2.33004585 4.76057744 4.28173231 6 8 C6.25248588 12.62588957 6.27088946 17.25411772 6.29516602 21.88598633 C6.3066553 23.41147154 6.32705882 24.93691752 6.35668945 26.4621582 C6.65919054 42.04180925 6.65919054 42.04180925 2 49 C1.46375 49.845625 0.9275 50.69125 0.375 51.5625 C-5.77566459 57.87502419 -13.25505134 63.18457314 -22.2734375 63.3359375 C-24.3071937 63.35977058 -26.34110577 63.37243842 -28.375 63.375 C-29.39078125 63.39949219 -30.4065625 63.42398438 -31.453125 63.44921875 C-40.02324846 63.48260884 -44.35840993 61.53622363 -50.5703125 55.828125 C-51.76304659 54.64325509 -52.94789025 53.45039324 -54.125 52.25 C-54.71925781 51.66734375 -55.31351563 51.0846875 -55.92578125 50.484375 C-66.59465934 39.74484209 -68.21289447 29.85755459 -68.23416138 15.14929199 C-68.22774471 13.40371343 -68.21824873 11.6581437 -68.20581055 9.91259766 C-68.18744785 7.24241657 -68.18530212 4.57258172 -68.18554688 1.90234375 C-68.180634 0.19010119 -68.17480669 -1.52213904 -68.16796875 -3.234375 C-68.16685593 -4.02511414 -68.1657431 -4.81585327 -68.16459656 -5.6305542 C-68.12852653 -9.85999995 -67.83166313 -13.83380328 -67 -18 C-48.97915209 -24.23277446 -15.21480671 -9.02160013 0 0 Z " fill="#FFFFFF" transform="translate(207,325)"/>
</svg>
